<svg width="288" height="62" viewBox="0 0 288 62" fill="none" xmlns="http://www.w3.org/2000/svg">
<path d="M4.71817 9.99184C7.30304 9.99184 9.39986 7.89782 9.39986 5.3164C9.39986 2.73506 7.30304 0.643555 4.71817 0.643555C2.13337 0.643555 0.0390625 2.73513 0.0390625 5.3164C0.0390625 7.89782 2.13337 9.99184 4.71817 9.99184Z" fill="#FFC80A"/>
<path d="M4.71817 9.36147C7.30304 9.36147 9.39986 7.26745 9.39986 4.68603C9.39986 2.10469 7.30304 0.0131836 4.71817 0.0131836C2.13337 0.0131836 0.0390625 2.10476 0.0390625 4.68603C0.0390625 7.26745 2.13337 9.36147 4.71817 9.36147Z" fill="#FFC80A"/>
<path d="M161.729 15.2517L161.724 15.2589V15.2517C154.739 15.2517 148.167 18.3813 143.693 23.836C140.242 28.0418 138.351 33.3188 138.364 38.6872V56.5461C138.364 59.3077 140.313 61.2394 143.104 61.2394C145.93 61.2394 147.829 59.3509 147.829 56.5461V38.4892C147.85 35.3113 148.962 32.2198 150.965 29.783C153.613 26.5519 157.543 24.6991 161.744 24.6991V24.6965H161.882C163.015 24.6965 164.118 24.3058 164.985 23.5974C165.948 22.8081 166.561 21.7242 166.716 20.549C166.876 19.2976 166.503 18.0792 165.638 17.0259C164.436 15.5588 162.85 15.2517 161.729 15.2517H161.729ZM35.4712 14.2253C23.5357 14.2253 15.1992 22.1826 15.1992 33.5767V48.9939L15.2042 49.1205C15.138 50.6764 13.8648 51.8923 12.3068 51.8923C10.7767 51.8923 9.5237 50.712 9.40936 49.2169H9.39639V18.4689C9.39639 15.7073 7.46224 13.7782 4.6969 13.7782C1.93163 13.7782 0 15.7074 0 18.4689V48.9936C0 55.7631 5.50519 61.2711 12.2761 61.2711C18.8004 61.2711 24.1912 56.1793 24.5521 49.6663C24.5773 49.4455 24.5953 49.2224 24.5953 48.9936V34.1194C24.5953 27.6241 28.9669 23.2609 35.471 23.2609C41.975 23.2609 46.344 27.6241 46.344 34.1194V56.5447C46.344 59.3088 48.2782 61.2379 51.0435 61.2379C53.8088 61.2379 55.7429 59.3089 55.7429 56.5447V33.5764C55.7429 22.1823 47.4065 14.2249 35.471 14.2249L35.4712 14.2253ZM84.3716 51.8956C81.3928 51.874 78.2793 50.6595 75.608 48.4715C72.342 45.7988 70.4638 41.8391 70.4943 37.6053V24.6731H79.9568C82.4806 24.6731 84.5164 22.645 84.5164 20.1246C84.5164 17.6042 82.4679 15.5634 79.9441 15.5634L70.4943 15.5659V4.70487C70.4943 1.94322 68.5322 0.0116559 65.7643 0.0116559C62.999 0.0116559 61.0597 1.94322 61.0597 4.70494V37.6054C61.0676 44.6414 64.1529 51.2331 69.653 55.7308C73.9712 59.264 78.8359 61.0535 84.1072 61.0535H84.1634C86.9287 61.0535 88.8629 59.1067 88.8629 56.3197C88.8629 53.6749 87.0736 51.9007 84.3719 51.8956H84.3716ZM286.048 52.6352L267.962 34.5758L281.725 22.8009C282.703 21.9125 283.356 20.4352 283.356 19.1204C283.356 16.3563 281.422 14.4273 278.657 14.4273C277.307 14.4273 275.828 15.0417 274.699 16.067L257.681 30.6261V4.69314C257.681 1.93156 255.749 0 252.981 0C250.216 0 248.284 1.93156 248.284 4.69314V56.5872C248.284 59.3488 250.216 61.2805 252.981 61.2805C255.749 61.2805 257.681 59.3488 257.681 56.5872V43.8783C257.683 43.5412 257.757 43.2083 257.896 42.9013C258.036 42.5943 258.239 42.3201 258.491 42.0965C259.485 41.2132 260.97 41.3401 261.91 42.2994L279.305 59.6508C280.194 60.628 281.674 61.2803 282.993 61.2803C285.758 61.2803 287.692 59.3513 287.692 56.5896C287.692 55.2418 287.077 53.7646 286.048 52.6351V52.6352ZM193.044 51.8956C190.065 51.874 186.951 50.6595 184.278 48.4715C181.014 45.7988 179.133 41.8391 179.164 37.6053V24.6731H188.616C191.145 24.6731 192.983 22.7567 192.983 20.1195C192.983 17.4798 191.145 15.5659 188.616 15.5659H179.164V4.70487C179.164 1.94322 177.204 0.0116559 174.436 0.0116559C171.671 0.0116559 169.732 1.94322 169.732 4.70494V37.6054C169.739 44.6414 172.825 51.2331 178.325 55.7308C182.643 59.264 187.508 61.0535 192.779 61.0535H192.837C195.602 61.0535 197.536 59.1067 197.536 56.3197C197.536 53.6749 195.747 51.9007 193.045 51.8956" fill="black"/>
<path d="M234.895 19.754C230.633 16.269 225.522 14.4263 220.115 14.4263C213.134 14.4263 206.564 17.5559 202.085 23.0156C193.802 33.1152 195.238 47.507 205.351 55.779C209.57 59.231 214.872 61.1322 220.278 61.1322C221.437 61.1322 222.604 61.0458 223.747 60.8731C224.614 60.7415 225.849 60.34 226.803 59.1751C228.416 57.2054 228.117 54.1824 226.144 52.5732C225.407 51.9688 224.487 51.6619 223.412 51.6619C223.122 51.6619 222.82 51.6835 222.517 51.7267C221.838 51.8432 221.137 51.8864 220.433 51.8864C212.193 51.8864 205.958 45.556 205.958 37.7586C205.958 29.9637 212.287 23.6435 220.092 23.6435C226.452 23.6435 231.83 27.8392 233.606 33.6061L220.072 33.6086C217.746 33.6086 215.861 35.4894 215.861 37.8119C215.861 40.1344 217.68 42.0101 220.003 42.0101H238.008C239.958 42.0101 241.556 41.1827 242.454 40.0887C243.211 39.1648 243.58 38.015 243.521 36.7636C243.19 30.1693 240.047 23.9684 234.895 19.7524L234.895 19.754ZM126.356 19.754C122.094 16.269 116.982 14.4263 111.576 14.4263C104.594 14.4263 98.0244 17.5559 93.546 23.0156C85.2628 33.1152 86.6988 47.507 96.812 55.779C101.031 59.231 106.333 61.1322 111.739 61.1322C112.898 61.1322 114.065 61.0458 115.211 60.8731C116.075 60.7415 117.31 60.34 118.263 59.1751C119.88 57.2054 119.577 54.1824 117.605 52.5732C116.868 51.9688 115.948 51.6619 114.873 51.6619C114.583 51.6619 114.28 51.6835 113.978 51.7267C113.299 51.8432 112.598 51.8864 111.894 51.8864C103.654 51.8864 97.4193 45.556 97.4193 37.7586C97.4193 29.9637 103.748 23.6435 111.553 23.6435C117.912 23.6435 123.29 27.8392 125.067 33.6061L111.53 33.6086C109.207 33.6086 107.321 35.4894 107.321 37.8119C107.321 40.1344 109.141 42.0101 111.464 42.0101H129.469C131.419 42.0101 133.017 41.1827 133.914 40.0887C134.672 39.1648 135.04 38.015 134.982 36.7636C134.651 30.1693 131.508 23.9684 126.356 19.7524" fill="black"/>
</svg>
