<svg width="1014" height="367" viewBox="0 0 1014 367" fill="none" xmlns="http://www.w3.org/2000/svg">
<path d="M180.04 226.869L177.304 208.581H157.864L155.128 226.869H140.584L156.712 126.069H179.896L196.024 226.869H180.04ZM175.144 194.901L167.512 143.925L159.88 194.901H175.144ZM198.937 212.613C201.529 212.613 203.449 212.421 204.697 212.037C206.041 211.557 207.001 210.597 207.577 209.157C208.249 207.621 208.633 205.317 208.729 202.245L211.321 126.069H256.105V226.869H239.977V140.469H226.153L224.425 201.381C224.137 210.597 222.217 217.173 218.665 221.109C215.113 225.045 209.353 227.013 201.385 227.013H198.937V212.613ZM305.813 168.549V182.949H284.069V212.469H311.429V226.869H268.229V126.069H311.429V140.469H284.069V168.549H305.813ZM365.596 126.069H387.628V226.869H372.652V154.581L361.708 226.869H346.732L334.924 155.589V226.869H321.1V126.069H343.132L354.796 197.637L365.596 126.069ZM465.862 126.069V140.469H449.302V226.869H433.462V140.469H416.902V126.069H465.862ZM510.422 168.549V182.949H488.678V212.469H516.038V226.869H472.838V126.069H516.038V140.469H488.678V168.549H510.422ZM562.142 175.029L579.854 226.869H563.15L550.19 186.981L537.086 226.869H522.254L539.966 175.029L523.406 126.069H539.822L551.774 163.221L564.014 126.069H578.702L562.142 175.029ZM587.729 226.869V126.069H603.569V169.269H621.569V126.069H637.697V226.869H621.569V183.669H603.569V226.869H587.729ZM647.886 150.261C647.886 142.197 649.95 135.957 654.078 131.541C658.206 127.125 664.158 124.917 671.934 124.917C679.71 124.917 685.662 127.125 689.79 131.541C693.918 135.957 695.982 142.197 695.982 150.261V202.677C695.982 210.741 693.918 216.981 689.79 221.397C685.662 225.813 679.71 228.021 671.934 228.021C664.158 228.021 658.206 225.813 654.078 221.397C649.95 216.981 647.886 210.741 647.886 202.677V150.261ZM663.726 203.685C663.726 210.309 666.462 213.621 671.934 213.621C677.406 213.621 680.142 210.309 680.142 203.685V149.253C680.142 142.629 677.406 139.317 671.934 139.317C666.462 139.317 663.726 142.629 663.726 149.253V203.685ZM772.987 126.069V140.469H756.427V226.869H740.587V140.469H724.027V126.069H772.987ZM803.291 126.069C811.163 126.069 817.067 128.181 821.003 132.405C824.939 136.629 826.907 142.821 826.907 150.981V164.085C826.907 172.245 824.939 178.437 821.003 182.661C817.067 186.885 811.163 188.997 803.291 188.997H795.803V226.869H779.963V126.069H803.291ZM795.803 174.597H803.291C805.883 174.597 807.803 173.877 809.051 172.437C810.395 170.997 811.067 168.549 811.067 165.093V149.973C811.067 146.517 810.395 144.069 809.051 142.629C807.803 141.189 805.883 140.469 803.291 140.469H795.803V174.597ZM871.828 168.549V182.949H850.084V212.469H877.444V226.869H834.244V126.069H877.444V140.469H850.084V168.549H871.828ZM929.452 103.605C929.452 108.597 928.012 112.533 925.132 115.413C922.252 118.197 918.076 119.589 912.604 119.589C907.228 119.589 903.148 118.197 900.364 115.413C897.676 112.629 896.236 108.693 896.044 103.605H905.836C906.028 106.197 906.652 107.973 907.708 108.933C908.764 109.797 910.396 110.229 912.604 110.229C914.908 110.229 916.636 109.749 917.788 108.789C918.94 107.829 919.612 106.101 919.804 103.605H929.452ZM923.26 155.877V226.869H937.516V126.069H920.092L907.132 167.685L901.372 189.861V126.069H887.26V226.869H903.532L916.78 180.645L923.26 155.877ZM994.786 226.869H960.946V240.405H945.538V212.757H951.73C953.074 211.125 953.986 209.301 954.466 207.285C955.042 205.269 955.426 202.725 955.618 199.653L959.218 126.069H1003.57V212.757H1010.48V240.405H994.786V226.869ZM971.17 199.365C970.978 203.013 970.498 205.845 969.73 207.861C969.058 209.877 968.05 211.509 966.706 212.757H987.442V140.469H974.05L971.17 199.365Z" fill="#4B566E"/>
<path d="M399.498 60.8694C169.292 -75.997 13.2493 140.569 142.846 345.6C144.743 348.601 141.228 351.632 138.809 349.033C-2.77017 196.94 104.308 -136.726 399.498 60.8694Z" fill="url(#paint0_radial)"/>
<path d="M542.704 252.509C500.433 274.72 317.325 358.755 62.0499 300.509C58.3281 299.66 59.5635 293.073 63.3546 293.522C158.354 304.757 343.537 314.139 502.442 247.603C502.81 247.449 503.205 247.369 503.604 247.369H541.264C544.299 247.369 545.392 251.097 542.704 252.509Z" fill="url(#paint1_radial)"/>
<path d="M537.112 33.5084C539.033 49.5951 546.304 81.921 540.618 97.9791C539.736 100.47 541.5 104.008 544.142 104.008H563.112C564.769 104.008 566.118 102.667 566.015 101.013C564.113 70.5217 534.974 15.6062 537.112 33.5084Z" fill="url(#paint2_radial)"/>
<path d="M180.04 226.869L177.304 208.581H157.864L155.128 226.869H140.584L156.712 126.069H179.896L196.024 226.869H180.04ZM175.144 194.901L167.512 143.925L159.88 194.901H175.144ZM198.937 212.613C201.529 212.613 203.449 212.421 204.697 212.037C206.041 211.557 207.001 210.597 207.577 209.157C208.249 207.621 208.633 205.317 208.729 202.245L211.321 126.069H256.105V226.869H239.977V140.469H226.153L224.425 201.381C224.137 210.597 222.217 217.173 218.665 221.109C215.113 225.045 209.353 227.013 201.385 227.013H198.937V212.613ZM305.813 168.549V182.949H284.069V212.469H311.429V226.869H268.229V126.069H311.429V140.469H284.069V168.549H305.813ZM365.596 126.069H387.628V226.869H372.652V154.581L361.708 226.869H346.732L334.924 155.589V226.869H321.1V126.069H343.132L354.796 197.637L365.596 126.069ZM465.862 126.069V140.469H449.302V226.869H433.462V140.469H416.902V126.069H465.862ZM510.422 168.549V182.949H488.678V212.469H516.038V226.869H472.838V126.069H516.038V140.469H488.678V168.549H510.422ZM562.142 175.029L579.854 226.869H563.15L550.19 186.981L537.086 226.869H522.254L539.966 175.029L523.406 126.069H539.822L551.774 163.221L564.014 126.069H578.702L562.142 175.029ZM587.729 226.869V126.069H603.569V169.269H621.569V126.069H637.697V226.869H621.569V183.669H603.569V226.869H587.729ZM647.886 150.261C647.886 142.197 649.95 135.957 654.078 131.541C658.206 127.125 664.158 124.917 671.934 124.917C679.71 124.917 685.662 127.125 689.79 131.541C693.918 135.957 695.982 142.197 695.982 150.261V202.677C695.982 210.741 693.918 216.981 689.79 221.397C685.662 225.813 679.71 228.021 671.934 228.021C664.158 228.021 658.206 225.813 654.078 221.397C649.95 216.981 647.886 210.741 647.886 202.677V150.261ZM663.726 203.685C663.726 210.309 666.462 213.621 671.934 213.621C677.406 213.621 680.142 210.309 680.142 203.685V149.253C680.142 142.629 677.406 139.317 671.934 139.317C666.462 139.317 663.726 142.629 663.726 149.253V203.685ZM772.987 126.069V140.469H756.427V226.869H740.587V140.469H724.027V126.069H772.987ZM803.291 126.069C811.163 126.069 817.067 128.181 821.003 132.405C824.939 136.629 826.907 142.821 826.907 150.981V164.085C826.907 172.245 824.939 178.437 821.003 182.661C817.067 186.885 811.163 188.997 803.291 188.997H795.803V226.869H779.963V126.069H803.291ZM795.803 174.597H803.291C805.883 174.597 807.803 173.877 809.051 172.437C810.395 170.997 811.067 168.549 811.067 165.093V149.973C811.067 146.517 810.395 144.069 809.051 142.629C807.803 141.189 805.883 140.469 803.291 140.469H795.803V174.597ZM871.828 168.549V182.949H850.084V212.469H877.444V226.869H834.244V126.069H877.444V140.469H850.084V168.549H871.828ZM929.452 103.605C929.452 108.597 928.012 112.533 925.132 115.413C922.252 118.197 918.076 119.589 912.604 119.589C907.228 119.589 903.148 118.197 900.364 115.413C897.676 112.629 896.236 108.693 896.044 103.605H905.836C906.028 106.197 906.652 107.973 907.708 108.933C908.764 109.797 910.396 110.229 912.604 110.229C914.908 110.229 916.636 109.749 917.788 108.789C918.94 107.829 919.612 106.101 919.804 103.605H929.452ZM923.26 155.877V226.869H937.516V126.069H920.092L907.132 167.685L901.372 189.861V126.069H887.26V226.869H903.532L916.78 180.645L923.26 155.877ZM994.786 226.869H960.946V240.405H945.538V212.757H951.73C953.074 211.125 953.986 209.301 954.466 207.285C955.042 205.269 955.426 202.725 955.618 199.653L959.218 126.069H1003.57V212.757H1010.48V240.405H994.786V226.869ZM971.17 199.365C970.978 203.013 970.498 205.845 969.73 207.861C969.058 209.877 968.05 211.509 966.706 212.757H987.442V140.469H974.05L971.17 199.365Z" fill="#4B566E"/>
<path d="M399.498 60.8694C169.292 -75.997 13.2493 140.569 142.846 345.6C144.743 348.601 141.228 351.632 138.809 349.033C-2.77017 196.94 104.308 -136.726 399.498 60.8694Z" fill="url(#paint3_radial)"/>
<path d="M542.704 252.509C500.433 274.72 317.325 358.755 62.0499 300.509C58.3281 299.66 59.5635 293.073 63.3546 293.522C158.354 304.757 343.537 314.139 502.442 247.603C502.81 247.449 503.205 247.369 503.604 247.369H541.264C544.299 247.369 545.392 251.097 542.704 252.509Z" fill="url(#paint4_radial)"/>
<path d="M537.112 33.5084C539.033 49.5951 546.304 81.921 540.618 97.9791C539.736 100.47 541.5 104.008 544.142 104.008H563.112C564.769 104.008 566.118 102.667 566.015 101.013C564.113 70.5217 534.974 15.6062 537.112 33.5084Z" fill="url(#paint5_radial)"/>
<defs>
<radialGradient id="paint0_radial" cx="0" cy="0" r="1" gradientUnits="userSpaceOnUse" gradientTransform="translate(7.32869 139.211) rotate(-10.7789) scale(365.89 33389.3)">
<stop offset="1" stop-color="#09FF89"/>
</radialGradient>
<radialGradient id="paint1_radial" cx="0" cy="0" r="1" gradientUnits="userSpaceOnUse" gradientTransform="translate(-66.9998 330.371) rotate(-1.03624) scale(774.127 6952.76)">
<stop offset="1" stop-color="#09FF89"/>
</radialGradient>
<radialGradient id="paint2_radial" cx="0" cy="0" r="1" gradientUnits="userSpaceOnUse" gradientTransform="translate(532.798 65.6703) rotate(-18.866) scale(34.4272 5232.42)">
<stop offset="1" stop-color="#09FF89"/>
</radialGradient>
<radialGradient id="paint3_radial" cx="0" cy="0" r="1" gradientUnits="userSpaceOnUse" gradientTransform="translate(7.32869 139.211) rotate(-10.7789) scale(365.89 33389.3)">
<stop offset="1" stop-color="#09FF89"/>
</radialGradient>
<radialGradient id="paint4_radial" cx="0" cy="0" r="1" gradientUnits="userSpaceOnUse" gradientTransform="translate(-66.9998 330.371) rotate(-1.03624) scale(774.127 6952.76)">
<stop offset="1" stop-color="#09FF89"/>
</radialGradient>
<radialGradient id="paint5_radial" cx="0" cy="0" r="1" gradientUnits="userSpaceOnUse" gradientTransform="translate(532.798 65.6703) rotate(-18.866) scale(34.4272 5232.42)">
<stop offset="1" stop-color="#09FF89"/>
</radialGradient>
</defs>
</svg>
